<mxfile host="Electron" modified="2024-03-08T11:40:19.927Z" agent="Mozilla/5.0 (Windows NT 10.0; Win64; x64) AppleWebKit/537.36 (KHTML, like Gecko) draw.io/23.1.5 Chrome/120.0.6099.109 Electron/28.1.0 Safari/537.36" etag="teHFC9XaI7dnu7g2YQx3" version="23.1.5" type="device">
  <diagram name="Page-1" id="GeZ4q9c_LSWayCHz3ktu">
    <mxGraphModel dx="1134" dy="741" grid="1" gridSize="10" guides="1" tooltips="1" connect="1" arrows="1" fold="1" page="1" pageScale="1" pageWidth="850" pageHeight="1100" math="0" shadow="0">
      <root>
        <mxCell id="0" />
        <mxCell id="1" parent="0" />
        <mxCell id="D4617x1Ep0FOKEcwXozs-2" value="" style="rounded=0;whiteSpace=wrap;html=1;" parent="1" vertex="1">
          <mxGeometry x="250" y="30" width="470" height="540" as="geometry" />
        </mxCell>
        <mxCell id="D4617x1Ep0FOKEcwXozs-3" value="Kurslara Goz at" style="ellipse;whiteSpace=wrap;html=1;fillColor=#d5e8d4;strokeColor=#82b366;" parent="1" vertex="1">
          <mxGeometry x="290" y="80" width="90" height="70" as="geometry" />
        </mxCell>
        <mxCell id="D4617x1Ep0FOKEcwXozs-4" value="Kurs için Kaydol" style="ellipse;whiteSpace=wrap;html=1;fillColor=#d5e8d4;strokeColor=#82b366;" parent="1" vertex="1">
          <mxGeometry x="315" y="150" width="90" height="60" as="geometry" />
        </mxCell>
        <mxCell id="D4617x1Ep0FOKEcwXozs-5" value="Kursu Bırak" style="ellipse;whiteSpace=wrap;html=1;fillColor=#d5e8d4;strokeColor=#82b366;" parent="1" vertex="1">
          <mxGeometry x="305" y="220" width="110" height="60" as="geometry" />
        </mxCell>
        <mxCell id="D4617x1Ep0FOKEcwXozs-6" value="Sınıf Listesini Görüntüle" style="ellipse;whiteSpace=wrap;html=1;fillColor=#f8cecc;strokeColor=#b85450;" parent="1" vertex="1">
          <mxGeometry x="290" y="380" width="140" height="80" as="geometry" />
        </mxCell>
        <mxCell id="D4617x1Ep0FOKEcwXozs-7" value="Notları Gir" style="ellipse;whiteSpace=wrap;html=1;fillColor=#f8cecc;strokeColor=#b85450;" parent="1" vertex="1">
          <mxGeometry x="300" y="470" width="120" height="80" as="geometry" />
        </mxCell>
        <mxCell id="D4617x1Ep0FOKEcwXozs-8" value="&lt;b&gt;&lt;i&gt;&lt;u&gt;Universite Sistemi&lt;/u&gt;&lt;/i&gt;&lt;/b&gt;" style="text;html=1;align=center;verticalAlign=middle;whiteSpace=wrap;rounded=0;" parent="1" vertex="1">
          <mxGeometry x="260" y="40" width="60" height="30" as="geometry" />
        </mxCell>
        <mxCell id="D4617x1Ep0FOKEcwXozs-9" value="" style="shape=mxgraph.cisco.people.pc_man;html=1;pointerEvents=1;fillColor=#036897;strokeColor=#ffffff;verticalLabelPosition=bottom;verticalAlign=top;align=center;dashed=0;strokeWidth=2;outlineConnect=0;" parent="1" vertex="1">
          <mxGeometry x="740" y="230" width="99" height="86" as="geometry" />
        </mxCell>
        <mxCell id="D4617x1Ep0FOKEcwXozs-10" value="Kayit Memuru" style="text;html=1;align=center;verticalAlign=middle;whiteSpace=wrap;rounded=0;" parent="1" vertex="1">
          <mxGeometry x="699.5" y="300" width="60" height="30" as="geometry" />
        </mxCell>
        <mxCell id="D4617x1Ep0FOKEcwXozs-11" value="" style="html=1;image=img/lib/clip_art/people/Suit_Man_128x128.png;verticalLabelPosition=bottom;verticalAlign=top;strokeColor=none;fillColor=#00BEF2;shape=mxgraph.azure.user;" parent="1" vertex="1">
          <mxGeometry y="170" width="80" height="80" as="geometry" />
        </mxCell>
        <mxCell id="D4617x1Ep0FOKEcwXozs-12" value="Öğrenci" style="text;html=1;align=center;verticalAlign=middle;whiteSpace=wrap;rounded=0;" parent="1" vertex="1">
          <mxGeometry x="10" y="270" width="60" height="30" as="geometry" />
        </mxCell>
        <mxCell id="D4617x1Ep0FOKEcwXozs-13" value="" style="endArrow=classic;html=1;rounded=0;entryX=0;entryY=1;entryDx=0;entryDy=0;" parent="1" source="D4617x1Ep0FOKEcwXozs-11" target="D4617x1Ep0FOKEcwXozs-3" edge="1">
          <mxGeometry width="50" height="50" relative="1" as="geometry">
            <mxPoint x="170" y="260" as="sourcePoint" />
            <mxPoint x="220" y="210" as="targetPoint" />
          </mxGeometry>
        </mxCell>
        <mxCell id="D4617x1Ep0FOKEcwXozs-14" value="" style="endArrow=classic;html=1;rounded=0;" parent="1" source="D4617x1Ep0FOKEcwXozs-11" target="D4617x1Ep0FOKEcwXozs-4" edge="1">
          <mxGeometry width="50" height="50" relative="1" as="geometry">
            <mxPoint x="180" y="270" as="sourcePoint" />
            <mxPoint x="383" y="138" as="targetPoint" />
          </mxGeometry>
        </mxCell>
        <mxCell id="D4617x1Ep0FOKEcwXozs-15" value="" style="endArrow=classic;html=1;rounded=0;" parent="1" source="D4617x1Ep0FOKEcwXozs-11" target="D4617x1Ep0FOKEcwXozs-5" edge="1">
          <mxGeometry width="50" height="50" relative="1" as="geometry">
            <mxPoint x="190" y="280" as="sourcePoint" />
            <mxPoint x="393" y="148" as="targetPoint" />
          </mxGeometry>
        </mxCell>
        <mxCell id="tv94BUwljileKZ6Z8rxJ-1" value="" style="shape=mxgraph.cisco.people.standing_man;html=1;pointerEvents=1;dashed=0;fillColor=#036897;strokeColor=#ffffff;strokeWidth=2;verticalLabelPosition=bottom;verticalAlign=top;align=center;outlineConnect=0;" vertex="1" parent="1">
          <mxGeometry x="15" y="410" width="50" height="120" as="geometry" />
        </mxCell>
        <mxCell id="tv94BUwljileKZ6Z8rxJ-4" value="" style="endArrow=classic;html=1;rounded=0;" edge="1" parent="1" source="tv94BUwljileKZ6Z8rxJ-1" target="D4617x1Ep0FOKEcwXozs-6">
          <mxGeometry width="50" height="50" relative="1" as="geometry">
            <mxPoint x="90" y="229" as="sourcePoint" />
            <mxPoint x="368" y="288" as="targetPoint" />
          </mxGeometry>
        </mxCell>
        <mxCell id="tv94BUwljileKZ6Z8rxJ-5" value="" style="endArrow=classic;html=1;rounded=0;exitX=0.98;exitY=0.5;exitDx=0;exitDy=0;exitPerimeter=0;" edge="1" parent="1" source="tv94BUwljileKZ6Z8rxJ-1" target="D4617x1Ep0FOKEcwXozs-7">
          <mxGeometry width="50" height="50" relative="1" as="geometry">
            <mxPoint x="75" y="474" as="sourcePoint" />
            <mxPoint x="314" y="414" as="targetPoint" />
          </mxGeometry>
        </mxCell>
        <mxCell id="tv94BUwljileKZ6Z8rxJ-6" value="Kurs Ekle" style="ellipse;whiteSpace=wrap;html=1;fillColor=#ffe6cc;strokeColor=#d79b00;" vertex="1" parent="1">
          <mxGeometry x="530" y="180" width="120" height="80" as="geometry" />
        </mxCell>
        <mxCell id="tv94BUwljileKZ6Z8rxJ-7" value="Kursu Kaldır" style="ellipse;whiteSpace=wrap;html=1;fillColor=#ffe6cc;strokeColor=#d79b00;" vertex="1" parent="1">
          <mxGeometry x="490" y="270" width="120" height="80" as="geometry" />
        </mxCell>
        <mxCell id="tv94BUwljileKZ6Z8rxJ-8" value="Kursu Değiştir" style="ellipse;whiteSpace=wrap;html=1;fillColor=#ffe6cc;strokeColor=#d79b00;" vertex="1" parent="1">
          <mxGeometry x="540" y="360" width="120" height="80" as="geometry" />
        </mxCell>
        <mxCell id="tv94BUwljileKZ6Z8rxJ-9" value="" style="endArrow=classic;html=1;rounded=0;" edge="1" parent="1" source="D4617x1Ep0FOKEcwXozs-9" target="tv94BUwljileKZ6Z8rxJ-6">
          <mxGeometry width="50" height="50" relative="1" as="geometry">
            <mxPoint x="75" y="474" as="sourcePoint" />
            <mxPoint x="314" y="414" as="targetPoint" />
          </mxGeometry>
        </mxCell>
        <mxCell id="tv94BUwljileKZ6Z8rxJ-10" value="" style="endArrow=classic;html=1;rounded=0;" edge="1" parent="1" target="tv94BUwljileKZ6Z8rxJ-7">
          <mxGeometry width="50" height="50" relative="1" as="geometry">
            <mxPoint x="750" y="264" as="sourcePoint" />
            <mxPoint x="712" y="250" as="targetPoint" />
          </mxGeometry>
        </mxCell>
        <mxCell id="tv94BUwljileKZ6Z8rxJ-11" value="" style="endArrow=classic;html=1;rounded=0;" edge="1" parent="1" target="tv94BUwljileKZ6Z8rxJ-8">
          <mxGeometry width="50" height="50" relative="1" as="geometry">
            <mxPoint x="760" y="274" as="sourcePoint" />
            <mxPoint x="722" y="260" as="targetPoint" />
          </mxGeometry>
        </mxCell>
        <mxCell id="tv94BUwljileKZ6Z8rxJ-13" value="Programı Görüntüle" style="ellipse;whiteSpace=wrap;html=1;fillColor=#d5e8d4;strokeColor=#82b366;" vertex="1" parent="1">
          <mxGeometry x="270" y="280" width="110" height="60" as="geometry" />
        </mxCell>
        <mxCell id="tv94BUwljileKZ6Z8rxJ-14" value="" style="endArrow=classic;html=1;rounded=0;exitX=0.5;exitY=1;exitDx=0;exitDy=0;exitPerimeter=0;" edge="1" parent="1" target="tv94BUwljileKZ6Z8rxJ-13" source="D4617x1Ep0FOKEcwXozs-11">
          <mxGeometry width="50" height="50" relative="1" as="geometry">
            <mxPoint x="50" y="278.5" as="sourcePoint" />
            <mxPoint x="363" y="209.5" as="targetPoint" />
          </mxGeometry>
        </mxCell>
        <mxCell id="tv94BUwljileKZ6Z8rxJ-15" value="Eğitmen" style="text;html=1;align=center;verticalAlign=middle;whiteSpace=wrap;rounded=0;" vertex="1" parent="1">
          <mxGeometry x="5" y="540" width="60" height="30" as="geometry" />
        </mxCell>
      </root>
    </mxGraphModel>
  </diagram>
</mxfile>
